<svg xmlns="http://www.w3.org/2000/svg" xmlns:xlink="http://www.w3.org/1999/xlink" width="378" zoomAndPan="magnify" viewBox="0 0 283.5 283.500005" height="378" preserveAspectRatio="xMidYMid meet" version="1.0"><defs><clipPath id="c82ac4b0a6"><path d="M 0 0 L 283 0 L 283 283 L 0 283 Z M 0 0 " clip-rule="nonzero"/></clipPath><clipPath id="1fb6eeed35"><rect x="0" width="283" y="0" height="283"/></clipPath><clipPath id="9824a2929f"><rect x="0" width="283" y="0" height="283"/></clipPath></defs><g transform="matrix(1, 0, 0, 1, 0, 0.000000000000005262)"><g clip-path="url(#9824a2929f)"><g transform="matrix(1, 0, 0, 1, 0, 0.000000000000005262)"><g clip-path="url(#1fb6eeed35)"><g clip-path="url(#c82ac4b0a6)"><rect x="-103.194" width="489.888" fill="#ffffff" y="-103.194002" height="489.888009" fill-opacity="1"/></g><path stroke-linecap="butt" transform="matrix(7.648672, 0, 0, 7.648672, -0.000000000000042563, 0.0000124824)" fill="none" stroke-linejoin="miter" d="M 1.999939 2.499922 L 9.000235 2.499922 M 10.000204 2.499922 L 11.000173 2.499922 M 12.000142 2.499922 L 13.000112 2.499922 M 15.00005 2.499922 L 16.00002 2.499922 M 18.999928 2.499922 L 23.999774 2.499922 M 25.000254 2.499922 L 26.000224 2.499922 M 28.000162 2.499922 L 34.999947 2.499922 M 1.999939 3.499891 L 2.999908 3.499891 M 7.999755 3.499891 L 9.000235 3.499891 M 10.000204 3.499891 L 12.000142 3.499891 M 14.000081 3.499891 L 16.00002 3.499891 M 19.999897 3.499891 L 20.999866 3.499891 M 23.999774 3.499891 L 26.000224 3.499891 M 28.000162 3.499891 L 29.000132 3.499891 M 33.999978 3.499891 L 34.999947 3.499891 M 1.999939 4.49986 L 2.999908 4.49986 M 3.999877 4.49986 L 6.999785 4.49986 M 7.999755 4.49986 L 9.000235 4.49986 M 12.000142 4.49986 L 15.00005 4.49986 M 18.999928 4.49986 L 19.999897 4.49986 M 20.999866 4.49986 L 22.999805 4.49986 M 26.000224 4.49986 L 27.000193 4.49986 M 28.000162 4.49986 L 29.000132 4.49986 M 30.000101 4.49986 L 33.000009 4.49986 M 33.999978 4.49986 L 34.999947 4.49986 M 1.999939 5.49983 L 2.999908 5.49983 M 3.999877 5.49983 L 6.999785 5.49983 M 7.999755 5.49983 L 9.000235 5.49983 M 10.000204 5.49983 L 12.000142 5.49983 M 14.000081 5.49983 L 15.00005 5.49983 M 16.00002 5.49983 L 18.999928 5.49983 M 20.999866 5.49983 L 22.999805 5.49983 M 23.999774 5.49983 L 27.000193 5.49983 M 28.000162 5.49983 L 29.000132 5.49983 M 30.000101 5.49983 L 33.000009 5.49983 M 33.999978 5.49983 L 34.999947 5.49983 M 1.999939 6.499799 L 2.999908 6.499799 M 3.999877 6.499799 L 6.999785 6.499799 M 7.999755 6.499799 L 9.000235 6.499799 M 11.000173 6.499799 L 12.000142 6.499799 M 15.00005 6.499799 L 16.999989 6.499799 M 21.999836 6.499799 L 22.999805 6.499799 M 26.000224 6.499799 L 27.000193 6.499799 M 28.000162 6.499799 L 29.000132 6.499799 M 30.000101 6.499799 L 33.000009 6.499799 M 33.999978 6.499799 L 34.999947 6.499799 M 1.999939 7.499768 L 2.999908 7.499768 M 7.999755 7.499768 L 9.000235 7.499768 M 11.000173 7.499768 L 13.000112 7.499768 M 14.000081 7.499768 L 15.00005 7.499768 M 16.00002 7.499768 L 16.999989 7.499768 M 18.999928 7.499768 L 22.999805 7.499768 M 23.999774 7.499768 L 25.000254 7.499768 M 26.000224 7.499768 L 27.000193 7.499768 M 28.000162 7.499768 L 29.000132 7.499768 M 33.999978 7.499768 L 34.999947 7.499768 M 1.999939 8.500248 L 9.000235 8.500248 M 10.000204 8.500248 L 11.000173 8.500248 M 12.000142 8.500248 L 13.000112 8.500248 M 14.000081 8.500248 L 15.00005 8.500248 M 16.00002 8.500248 L 16.999989 8.500248 M 17.999958 8.500248 L 18.999928 8.500248 M 19.999897 8.500248 L 20.999866 8.500248 M 21.999836 8.500248 L 22.999805 8.500248 M 23.999774 8.500248 L 25.000254 8.500248 M 26.000224 8.500248 L 27.000193 8.500248 M 28.000162 8.500248 L 34.999947 8.500248 M 10.000204 9.500218 L 11.000173 9.500218 M 13.000112 9.500218 L 15.00005 9.500218 M 18.999928 9.500218 L 20.999866 9.500218 M 21.999836 9.500218 L 22.999805 9.500218 M 23.999774 9.500218 L 25.000254 9.500218 M 1.999939 10.500187 L 2.999908 10.500187 M 3.999877 10.500187 L 5.999816 10.500187 M 6.999785 10.500187 L 10.000204 10.500187 M 12.000142 10.500187 L 13.000112 10.500187 M 16.00002 10.500187 L 16.999989 10.500187 M 17.999958 10.500187 L 21.999836 10.500187 M 22.999805 10.500187 L 23.999774 10.500187 M 28.000162 10.500187 L 29.000132 10.500187 M 31.00007 10.500187 L 32.00004 10.500187 M 33.000009 10.500187 L 34.999947 10.500187 M 1.999939 11.500156 L 2.999908 11.500156 M 10.000204 11.500156 L 11.000173 11.500156 M 12.000142 11.500156 L 13.000112 11.500156 M 14.000081 11.500156 L 15.00005 11.500156 M 17.999958 11.500156 L 18.999928 11.500156 M 19.999897 11.500156 L 22.999805 11.500156 M 25.000254 11.500156 L 26.000224 11.500156 M 28.000162 11.500156 L 30.000101 11.500156 M 31.00007 11.500156 L 33.000009 11.500156 M 33.999978 11.500156 L 34.999947 11.500156 M 1.999939 12.500126 L 3.999877 12.500126 M 4.999847 12.500126 L 6.999785 12.500126 M 7.999755 12.500126 L 9.000235 12.500126 M 10.000204 12.500126 L 11.000173 12.500126 M 12.000142 12.500126 L 13.000112 12.500126 M 16.00002 12.500126 L 16.999989 12.500126 M 18.999928 12.500126 L 19.999897 12.500126 M 25.000254 12.500126 L 26.000224 12.500126 M 28.000162 12.500126 L 32.00004 12.500126 M 33.000009 12.500126 L 34.999947 12.500126 M 1.999939 13.500095 L 4.999847 13.500095 M 6.999785 13.500095 L 7.999755 13.500095 M 9.000235 13.500095 L 10.000204 13.500095 M 11.000173 13.500095 L 13.000112 13.500095 M 15.00005 13.500095 L 18.999928 13.500095 M 19.999897 13.500095 L 20.999866 13.500095 M 21.999836 13.500095 L 22.999805 13.500095 M 27.000193 13.500095 L 30.000101 13.500095 M 31.00007 13.500095 L 32.00004 13.500095 M 33.999978 13.500095 L 34.999947 13.500095 M 1.999939 14.500064 L 6.999785 14.500064 M 7.999755 14.500064 L 9.000235 14.500064 M 10.000204 14.500064 L 11.000173 14.500064 M 13.000112 14.500064 L 14.000081 14.500064 M 16.999989 14.500064 L 17.999958 14.500064 M 19.999897 14.500064 L 21.999836 14.500064 M 23.999774 14.500064 L 25.000254 14.500064 M 30.000101 14.500064 L 32.00004 14.500064 M 33.000009 14.500064 L 34.999947 14.500064 M 1.999939 15.500033 L 2.999908 15.500033 M 3.999877 15.500033 L 4.999847 15.500033 M 6.999785 15.500033 L 7.999755 15.500033 M 10.000204 15.500033 L 11.000173 15.500033 M 12.000142 15.500033 L 15.00005 15.500033 M 17.999958 15.500033 L 20.999866 15.500033 M 26.000224 15.500033 L 28.000162 15.500033 M 33.000009 15.500033 L 33.999978 15.500033 M 2.999908 16.500003 L 3.999877 16.500003 M 5.999816 16.500003 L 9.000235 16.500003 M 10.000204 16.500003 L 11.000173 16.500003 M 12.000142 16.500003 L 14.000081 16.500003 M 16.00002 16.500003 L 18.999928 16.500003 M 19.999897 16.500003 L 20.999866 16.500003 M 22.999805 16.500003 L 25.000254 16.500003 M 26.000224 16.500003 L 27.000193 16.500003 M 28.000162 16.500003 L 29.000132 16.500003 M 30.000101 16.500003 L 31.00007 16.500003 M 3.999877 17.499972 L 5.999816 17.499972 M 6.999785 17.499972 L 7.999755 17.499972 M 9.000235 17.499972 L 11.000173 17.499972 M 17.999958 17.499972 L 18.999928 17.499972 M 19.999897 17.499972 L 26.000224 17.499972 M 27.000193 17.499972 L 30.000101 17.499972 M 31.00007 17.499972 L 33.000009 17.499972 M 1.999939 18.499941 L 2.999908 18.499941 M 7.999755 18.499941 L 10.000204 18.499941 M 12.000142 18.499941 L 13.000112 18.499941 M 14.000081 18.499941 L 15.00005 18.499941 M 16.00002 18.499941 L 18.999928 18.499941 M 20.999866 18.499941 L 25.000254 18.499941 M 26.000224 18.499941 L 29.000132 18.499941 M 30.000101 18.499941 L 33.000009 18.499941 M 1.999939 19.499911 L 2.999908 19.499911 M 3.999877 19.499911 L 4.999847 19.499911 M 6.999785 19.499911 L 7.999755 19.499911 M 9.000235 19.499911 L 10.000204 19.499911 M 12.000142 19.499911 L 15.00005 19.499911 M 16.999989 19.499911 L 17.999958 19.499911 M 18.999928 19.499911 L 19.999897 19.499911 M 22.999805 19.499911 L 29.000132 19.499911 M 30.000101 19.499911 L 32.00004 19.499911 M 33.000009 19.499911 L 34.999947 19.499911 M 3.999877 20.49988 L 4.999847 20.49988 M 6.999785 20.49988 L 9.000235 20.49988 M 12.000142 20.49988 L 13.000112 20.49988 M 15.00005 20.49988 L 16.00002 20.49988 M 16.999989 20.49988 L 19.999897 20.49988 M 26.000224 20.49988 L 28.000162 20.49988 M 29.000132 20.49988 L 31.00007 20.49988 M 32.00004 20.49988 L 33.999978 20.49988 M 1.999939 21.499849 L 2.999908 21.499849 M 13.000112 21.499849 L 16.00002 21.499849 M 21.999836 21.499849 L 22.999805 21.499849 M 23.999774 21.499849 L 25.000254 21.499849 M 30.000101 21.499849 L 31.00007 21.499849 M 33.000009 21.499849 L 34.999947 21.499849 M 2.999908 22.499819 L 4.999847 22.499819 M 6.999785 22.499819 L 10.000204 22.499819 M 11.000173 22.499819 L 12.000142 22.499819 M 13.000112 22.499819 L 15.00005 22.499819 M 16.00002 22.499819 L 16.999989 22.499819 M 19.999897 22.499819 L 21.999836 22.499819 M 22.999805 22.499819 L 23.999774 22.499819 M 27.000193 22.499819 L 28.000162 22.499819 M 29.000132 22.499819 L 30.000101 22.499819 M 31.00007 22.499819 L 34.999947 22.499819 M 1.999939 23.499788 L 2.999908 23.499788 M 3.999877 23.499788 L 4.999847 23.499788 M 5.999816 23.499788 L 6.999785 23.499788 M 9.000235 23.499788 L 14.000081 23.499788 M 15.00005 23.499788 L 17.999958 23.499788 M 18.999928 23.499788 L 20.999866 23.499788 M 22.999805 23.499788 L 23.999774 23.499788 M 25.000254 23.499788 L 26.000224 23.499788 M 28.000162 23.499788 L 30.000101 23.499788 M 31.00007 23.499788 L 32.00004 23.499788 M 33.999978 23.499788 L 34.999947 23.499788 M 3.999877 24.499757 L 4.999847 24.499757 M 6.999785 24.499757 L 9.000235 24.499757 M 11.000173 24.499757 L 12.000142 24.499757 M 13.000112 24.499757 L 16.999989 24.499757 M 17.999958 24.499757 L 20.999866 24.499757 M 23.999774 24.499757 L 26.000224 24.499757 M 30.000101 24.499757 L 31.00007 24.499757 M 32.00004 24.499757 L 34.999947 24.499757 M 2.999908 25.500237 L 6.999785 25.500237 M 9.000235 25.500237 L 11.000173 25.500237 M 15.00005 25.500237 L 16.999989 25.500237 M 17.999958 25.500237 L 18.999928 25.500237 M 19.999897 25.500237 L 20.999866 25.500237 M 21.999836 25.500237 L 22.999805 25.500237 M 25.000254 25.500237 L 26.000224 25.500237 M 27.000193 25.500237 L 28.000162 25.500237 M 30.000101 25.500237 L 31.00007 25.500237 M 33.000009 25.500237 L 34.999947 25.500237 M 1.999939 26.500207 L 2.999908 26.500207 M 4.999847 26.500207 L 9.000235 26.500207 M 10.000204 26.500207 L 11.000173 26.500207 M 14.000081 26.500207 L 17.999958 26.500207 M 18.999928 26.500207 L 19.999897 26.500207 M 20.999866 26.500207 L 22.999805 26.500207 M 25.000254 26.500207 L 31.00007 26.500207 M 10.000204 27.500176 L 12.000142 27.500176 M 13.000112 27.500176 L 14.000081 27.500176 M 16.999989 27.500176 L 19.999897 27.500176 M 20.999866 27.500176 L 21.999836 27.500176 M 22.999805 27.500176 L 23.999774 27.500176 M 25.000254 27.500176 L 27.000193 27.500176 M 30.000101 27.500176 L 32.00004 27.500176 M 33.000009 27.500176 L 33.999978 27.500176 M 1.999939 28.500145 L 9.000235 28.500145 M 10.000204 28.500145 L 11.000173 28.500145 M 13.000112 28.500145 L 14.000081 28.500145 M 15.00005 28.500145 L 16.999989 28.500145 M 20.999866 28.500145 L 21.999836 28.500145 M 23.999774 28.500145 L 27.000193 28.500145 M 28.000162 28.500145 L 29.000132 28.500145 M 30.000101 28.500145 L 31.00007 28.500145 M 1.999939 29.500115 L 2.999908 29.500115 M 7.999755 29.500115 L 9.000235 29.500115 M 10.000204 29.500115 L 15.00005 29.500115 M 17.999958 29.500115 L 18.999928 29.500115 M 20.999866 29.500115 L 21.999836 29.500115 M 22.999805 29.500115 L 27.000193 29.500115 M 30.000101 29.500115 L 34.999947 29.500115 M 1.999939 30.500084 L 2.999908 30.500084 M 3.999877 30.500084 L 6.999785 30.500084 M 7.999755 30.500084 L 9.000235 30.500084 M 15.00005 30.500084 L 17.999958 30.500084 M 18.999928 30.500084 L 19.999897 30.500084 M 20.999866 30.500084 L 31.00007 30.500084 M 32.00004 30.500084 L 33.000009 30.500084 M 1.999939 31.500053 L 2.999908 31.500053 M 3.999877 31.500053 L 6.999785 31.500053 M 7.999755 31.500053 L 9.000235 31.500053 M 10.000204 31.500053 L 12.000142 31.500053 M 13.000112 31.500053 L 14.000081 31.500053 M 15.00005 31.500053 L 16.999989 31.500053 M 19.999897 31.500053 L 20.999866 31.500053 M 22.999805 31.500053 L 26.000224 31.500053 M 29.000132 31.500053 L 30.000101 31.500053 M 31.00007 31.500053 L 33.000009 31.500053 M 33.999978 31.500053 L 34.999947 31.500053 M 1.999939 32.500023 L 2.999908 32.500023 M 3.999877 32.500023 L 6.999785 32.500023 M 7.999755 32.500023 L 9.000235 32.500023 M 10.000204 32.500023 L 11.000173 32.500023 M 12.000142 32.500023 L 14.000081 32.500023 M 16.00002 32.500023 L 16.999989 32.500023 M 18.999928 32.500023 L 20.999866 32.500023 M 23.999774 32.500023 L 30.000101 32.500023 M 31.00007 32.500023 L 33.000009 32.500023 M 1.999939 33.499992 L 2.999908 33.499992 M 7.999755 33.499992 L 9.000235 33.499992 M 11.000173 33.499992 L 12.000142 33.499992 M 16.999989 33.499992 L 19.999897 33.499992 M 20.999866 33.499992 L 21.999836 33.499992 M 25.000254 33.499992 L 28.000162 33.499992 M 29.000132 33.499992 L 32.00004 33.499992 M 33.999978 33.499992 L 34.999947 33.499992 M 1.999939 34.499961 L 9.000235 34.499961 M 10.000204 34.499961 L 11.000173 34.499961 M 15.00005 34.499961 L 20.999866 34.499961 M 22.999805 34.499961 L 23.999774 34.499961 M 25.000254 34.499961 L 26.000224 34.499961 M 30.000101 34.499961 L 33.000009 34.499961 " stroke="#000000" stroke-width="1" stroke-opacity="1" stroke-miterlimit="4"/></g></g></g></g></svg>